<svg xmlns="http://www.w3.org/2000/svg" viewBox="0 0 473.75 601.51"><defs><style>.cls-1{fill:#8e3200;}.cls-2{fill:#a64b2a;}.cls-3{fill:#fff;}.cls-4{fill:#ffe94d;}.cls-5{fill:#ffda3e;}.cls-6{fill:#1db3db;}.cls-7{fill:#ffcb42;}.cls-8{fill:#ffea6c;}.cls-9{fill:#27a1e3;}.cls-10{fill:#ffed10;}.cls-11{fill:#fe3710;}.cls-12{fill:#ff5129;}.cls-13{fill:#ff816c;}</style></defs><g id="Layer_2" data-name="Layer 2"><g id="Layer_1-2" data-name="Layer 1"><path class="cls-1" d="M375.91,575.21a321.66,321.66,0,0,1-136.62-99.16,397.9,397.9,0,0,1-79.93,67.79A396.05,396.05,0,0,1,100,575.21v26.3H375.91Z"/><path class="cls-2" d="M346.63,567.93q-7.5-3.52-14.2-7.14c2.29-.78,4.48-1.56,6.55-2.32a321.3,321.3,0,0,1-99.69-82.42,397.9,397.9,0,0,1-79.93,67.79c-8.11,5.21-16.08,9.91-23.84,14.15a292.75,292.75,0,0,0,182.53,7.29c3.11,2,6.44,3.94,10,5.88a177.51,177.51,0,0,0,17,8.07v22.28h21.73v-25C360.37,574,353.64,571.21,346.63,567.93Z"/><path class="cls-1" d="M342.33,547.93a292.77,292.77,0,0,1-208.87,0V465.15H342.33Z"/><path class="cls-2" d="M342.33,524.53a312.45,312.45,0,0,1-208.87,0V447.31H342.33Z"/><path class="cls-2" d="M314.74,556.92c7.3-2,13.91-4.08,19.78-6.14V519.59H314.74Z"/><path class="cls-1" d="M373.08,508a377.35,377.35,0,0,1-269,0V401.34l22.84,13.86a215.37,215.37,0,0,0,224.2-.4l22-13.46Z"/><path class="cls-2" d="M373.08,444.82V425a225.94,225.94,0,0,1-269,.29v19.8a235.67,235.67,0,0,0,269-.26Z"/><path class="cls-2" d="M361.36,442.55c-7.54,4.32-14.27,9.87-21.93,13.83V519c10.21-2.83,19.35-5.83,27.32-8.7V439.61C364.94,440.58,363.14,441.54,361.36,442.55Z"/><circle class="cls-3" cx="258.41" cy="24.53" r="10.09"/><polygon class="cls-4" points="238.56 235.81 238.56 235.81 238.56 235.81 238.56 235.81 238.56 235.81 238.56 235.81"/><polygon class="cls-4" points="238.56 235.81 238.56 235.81 238.56 235.81 238.56 235.81 238.56 235.81"/><polygon class="cls-4" points="238.56 235.81 238.56 235.81 238.56 235.81 238.56 235.81 238.56 235.81"/><rect class="cls-4" x="238.57" y="235.81"/><path class="cls-4" d="M54.49,374.52l-1-1.38Z"/><path class="cls-4" d="M75.78,399l-.45-.44Z"/><path class="cls-4" d="M57.42,378.34,57,377.8Z"/><polygon class="cls-4" points="238.56 235.81 238.56 235.81 238.57 235.81 238.56 235.81 238.56 235.81"/><polygon class="cls-4" points="238.56 235.81 238.56 235.81 238.56 235.81 238.56 235.81 238.56 235.81"/><polygon class="cls-4" points="238.56 235.81 238.56 235.81 238.56 235.81 238.56 235.81 238.56 235.81"/><path class="cls-4" d="M401.4,72.69l.33.33Z"/><polygon class="cls-4" points="238.57 235.81 238.57 235.81 238.57 235.81 238.57 235.81"/><polygon class="cls-4" points="238.56 235.81 238.56 235.81 238.57 235.81 238.57 235.81 238.56 235.81"/><polygon class="cls-4" points="238.56 235.81 238.56 235.81 238.56 235.81 238.56 235.81 238.56 235.81 238.56 235.81"/><polygon class="cls-4" points="238.56 235.81 238.56 235.81 238.56 235.81 238.56 235.81"/><path class="cls-4" d="M266.32,7c.89.11,1.78.21,2.65.33C268.09,7.2,267.21,7.1,266.32,7Z"/><path class="cls-4" d="M96.15,54.57l.36-.28Z"/><path class="cls-4" d="M100,51.63l1.44-1.07Z"/><path class="cls-4" d="M262,6.5l.47,0Z"/><polygon class="cls-4" points="238.56 235.81 238.56 235.81 238.56 235.81 238.56 235.81 238.56 235.81"/><path class="cls-4" d="M109.07,45.14c-.85.58-1.71,1.16-2.55,1.76Z"/><path class="cls-4" d="M106.52,46.9Q105,48,103.43,49.09,105,48,106.52,46.9Z"/><path class="cls-4" d="M49.89,368.19c.72,1,1.44,2,2.19,3.07C51.34,370.25,50.62,369.22,49.89,368.19Z"/><path class="cls-4" d="M273.51,8c-1.18-.18-2.37-.36-3.57-.52C271.13,7.62,272.32,7.8,273.51,8Z"/><path class="cls-4" d="M359.23,39.42c-1.16-.72-2.32-1.42-3.5-2.11C356.92,38,358.09,38.71,359.23,39.42Z"/><path class="cls-4" d="M355.31,37.06c-1.24-.73-2.48-1.45-3.73-2.15C352.85,35.62,354.09,36.34,355.31,37.06Z"/><path class="cls-4" d="M121.46,434.34c-1.23-.72-2.44-1.45-3.63-2.18,1.2.74,2.41,1.47,3.63,2.18Z"/><path class="cls-4" d="M203.73,463.65l3.57.53Z"/><path class="cls-4" d="M377.13,420l-1.41,1.06C376.2,420.7,376.67,420.35,377.13,420Z"/><path class="cls-5" d="M370.6,424.73c1-.71,2-1.44,3.08-2.19C372.66,423.28,371.63,424,370.6,424.73Z"/><path class="cls-5" d="M368.09,426.45c.84-.57,1.68-1.14,2.51-1.72Z"/><path class="cls-4" d="M381,417.05l-.33.26Z"/><path class="cls-4" d="M401.59,398.74l-.15.15Z"/><path class="cls-4" d="M210.86,464.63l-2.73-.34Z"/><path class="cls-4" d="M215.18,465.12l-.56-.06Z"/><path class="cls-6" d="M264.59,6.78c-.72-.09-1.43-.16-2.14-.23,1.29.13,2.58.29,3.87.44C265.74,6.92,265.18,6.84,264.59,6.78Z"/><path class="cls-6" d="M269,7.32l1,.14Z"/><polygon class="cls-6" points="238.56 235.81 238.56 235.81 238.56 235.81 238.56 235.81 238.56 235.81 238.56 235.81 238.56 235.81 238.56 235.81 238.56 235.81 238.56 235.81"/><polygon class="cls-6" points="238.56 235.81 238.56 235.81 238.56 235.81 238.56 235.81 238.56 235.81 238.56 235.81"/><polygon class="cls-6" points="238.56 235.81 238.56 235.81 238.56 235.81 238.56 235.81"/><path class="cls-6" d="M418.49,91.73A224.78,224.78,0,0,0,401.73,73a231.87,231.87,0,0,1,18,20.32Z"/><path class="cls-6" d="M401.06,72.35h0l.35.34Z"/><polygon class="cls-6" points="238.56 235.81 238.57 235.81 238.57 235.81 238.56 235.81 238.56 235.81 238.56 235.81"/><polygon class="cls-6" points="238.56 235.81 238.56 235.81 238.56 235.81 238.56 235.81 238.56 235.81"/><polygon class="cls-6" points="238.56 235.81 238.56 235.81 238.56 235.81 238.56 235.81 238.56 235.81"/><polygon class="cls-6" points="238.56 235.81 238.56 235.81 238.56 235.81 238.56 235.81 238.56 235.81"/><rect class="cls-6" x="238.56" y="235.81"/><polygon class="cls-6" points="238.56 235.81 238.56 235.81 238.56 235.81 238.56 235.81 238.56 235.81"/><polygon class="cls-6" points="238.56 235.81 238.56 235.81 238.56 235.81 238.56 235.81 238.56 235.81"/><polygon class="cls-6" points="238.56 235.81 238.56 235.81 238.56 235.81 238.56 235.81"/><polygon class="cls-6" points="238.57 235.81 238.56 235.81 238.56 235.81 238.57 235.81"/><polygon class="cls-6" points="238.56 235.81 238.56 235.81 238.57 235.81 238.57 235.81 238.56 235.81"/><polygon class="cls-6" points="238.56 235.81 238.56 235.81 238.56 235.81 238.56 235.81"/><polygon class="cls-6" points="238.56 235.81 238.56 235.81 238.56 235.81 238.56 235.81 238.56 235.81 238.56 235.81 238.56 235.81 238.56 235.81"/><polygon class="cls-6" points="238.56 235.81 238.56 235.81 238.56 235.81 238.56 235.81 238.56 235.81 238.56 235.81"/><polygon class="cls-6" points="238.56 235.81 238.56 235.81 238.56 235.81 238.56 235.81 238.56 235.81 238.56 235.81"/><polygon class="cls-6" points="238.56 235.81 238.56 235.81 238.56 235.81 238.56 235.81"/><polygon class="cls-6" points="238.56 235.81 238.56 235.81 238.56 235.81 238.56 235.81 238.56 235.81"/><polygon class="cls-6" points="238.56 235.81 238.56 235.81 238.56 235.81 238.56 235.81 238.56 235.81"/><polygon class="cls-6" points="238.56 235.81 238.56 235.81 238.56 235.81 238.56 235.81"/><polygon class="cls-6" points="238.56 235.81 238.56 235.81 238.56 235.81 238.56 235.81 238.56 235.81 238.56 235.81"/><polygon class="cls-6" points="238.56 235.81 238.56 235.81 238.56 235.81 238.56 235.81"/><polygon class="cls-6" points="238.56 235.81 238.56 235.81 238.56 235.81 238.56 235.81 238.56 235.81 238.56 235.81"/><polygon class="cls-6" points="238.56 235.81 238.56 235.81 238.56 235.81 238.56 235.81 238.56 235.81"/><polygon class="cls-6" points="238.56 235.81 238.56 235.81 238.56 235.81 238.56 235.81 238.56 235.81"/><polygon class="cls-6" points="238.56 235.81 238.56 235.81 238.56 235.81 238.56 235.81 238.56 235.81"/><polygon class="cls-6" points="238.56 235.81 238.56 235.81 238.56 235.81 238.56 235.81 238.56 235.81"/><rect class="cls-6" x="238.56" y="235.81"/><polygon class="cls-6" points="238.56 235.81 238.56 235.81 238.56 235.81 238.56 235.81"/><polygon class="cls-6" points="238.56 235.81 238.56 235.81 238.56 235.81 238.56 235.81 238.56 235.81 238.56 235.81"/><polygon class="cls-6" points="238.56 235.81 238.56 235.81 238.56 235.81 238.56 235.81 238.56 235.81 238.56 235.81 238.56 235.81"/><polygon class="cls-6" points="238.56 235.81 238.56 235.81 238.56 235.81 238.56 235.81 238.56 235.81 238.56 235.81"/><polygon class="cls-6" points="238.56 235.81 238.56 235.81 238.56 235.81 238.56 235.81 238.56 235.81"/><polygon class="cls-6" points="238.56 235.81 238.56 235.81 238.56 235.81 238.56 235.81 238.56 235.81"/><polygon class="cls-6" points="238.56 235.81 238.56 235.81 238.56 235.81 238.56 235.81"/><path class="cls-6" d="M96.51,54.29c1.15-.9,2.31-1.78,3.47-2.66C98.83,52.49,97.68,53.38,96.51,54.29Z"/><path class="cls-6" d="M95,55.5A223.6,223.6,0,0,0,75.73,72.69,232.65,232.65,0,0,1,96.15,54.57C95.75,54.88,95.36,55.18,95,55.5Z"/><path class="cls-6" d="M101.42,50.56l2-1.47Q102.43,49.81,101.42,50.56Z"/><polygon class="cls-6" points="238.56 235.81 238.56 235.81 238.56 235.81 238.56 235.81"/><polygon class="cls-6" points="238.56 235.81 238.56 235.81 238.56 235.81 238.56 235.81 238.56 235.81"/><polygon class="cls-6" points="238.56 235.81 238.56 235.81 238.56 235.81 238.56 235.81 238.56 235.81"/><polygon class="cls-6" points="238.56 235.81 238.56 235.81 238.56 235.81 238.56 235.81 238.56 235.81"/><polygon class="cls-6" points="238.56 235.81 238.56 235.81 238.56 235.81 238.56 235.81"/><polygon class="cls-6" points="238.56 235.81 238.56 235.81 238.56 235.81 238.56 235.81 238.56 235.81 238.56 235.81 238.56 235.81"/><polygon class="cls-6" points="238.56 235.81 238.56 235.81 238.56 235.81 238.56 235.81 238.56 235.81 238.56 235.81 238.56 235.81"/><polygon class="cls-6" points="238.56 235.81 238.56 235.81 238.56 235.81 238.56 235.81"/><polygon class="cls-6" points="238.56 235.81 238.56 235.81 238.56 235.81 238.56 235.81 238.56 235.81"/><polygon class="cls-6" points="238.56 235.81 238.56 235.81 238.56 235.81 238.56 235.81 238.56 235.81 238.56 235.81"/><polygon class="cls-6" points="238.56 235.81 238.56 235.81 238.56 235.81 238.56 235.81 238.56 235.81"/><polygon class="cls-6" points="238.56 235.81 238.56 235.81 238.56 235.81 238.56 235.81"/><polygon class="cls-6" points="238.56 235.81 238.56 235.81 238.56 235.81 238.56 235.81 238.56 235.81"/><polygon class="cls-6" points="238.57 235.81 238.57 235.81 238.57 235.81 238.57 235.81"/><polygon class="cls-6" points="238.56 235.81 238.56 235.81 238.56 235.81 238.56 235.81"/><polygon class="cls-6" points="238.56 235.81 238.56 235.81 238.56 235.81 238.56 235.81"/><polygon class="cls-6" points="238.56 235.81 238.56 235.81 238.56 235.81 238.56 235.81 238.56 235.81"/><polygon class="cls-6" points="238.56 235.81 238.56 235.81 238.56 235.81 238.56 235.81 238.56 235.81"/><polygon class="cls-6" points="238.56 235.81 238.56 235.81 238.56 235.81 238.56 235.81 238.56 235.81 238.56 235.81"/><polygon class="cls-6" points="238.57 235.81 238.57 235.81 238.57 235.81 238.57 235.81 238.57 235.81 238.57 235.81"/><polygon class="cls-6" points="238.56 235.81 238.56 235.81 238.56 235.81 238.56 235.81 238.56 235.81 238.56 235.81"/><polygon class="cls-6" points="238.56 235.81 238.56 235.81 238.56 235.8 238.56 235.81 238.56 235.81 238.56 235.81"/><polygon class="cls-6" points="238.56 235.81 238.56 235.81 238.56 235.81 238.56 235.81"/><polygon class="cls-6" points="238.56 235.81 238.56 235.81 238.56 235.81 238.56 235.81 238.56 235.81"/><polygon class="cls-6" points="238.57 235.81 238.56 235.81 238.57 235.81 238.57 235.81"/><polygon class="cls-6" points="238.56 235.81 238.56 235.81 238.56 235.81 238.56 235.81 238.56 235.81"/><polygon class="cls-6" points="238.56 235.81 238.56 235.81 238.56 235.81 238.56 235.81 238.56 235.81"/><polygon class="cls-6" points="238.56 235.81 238.56 235.81 238.56 235.81 238.56 235.81 238.56 235.81 238.56 235.81"/><path class="cls-6" d="M212.54,464.84l2.08.22c-1.26-.13-2.51-.28-3.76-.43C211.42,464.7,212,464.78,212.54,464.84Z"/><path class="cls-6" d="M238.51,466.29a233.46,233.46,0,0,1-23.33-1.17A225.08,225.08,0,0,0,238.51,466.29Z"/><path class="cls-6" d="M208.13,464.29l-.83-.11Z"/><polygon class="cls-6" points="238.57 235.81 238.57 235.81 238.57 235.81 238.57 235.81 238.56 235.81 238.57 235.81 238.56 235.81 238.56 235.81 238.57 235.81 238.57 235.81 238.57 235.81"/><polygon class="cls-6" points="238.57 235.81 238.56 235.81 238.56 235.81 238.57 235.81"/><polygon class="cls-6" points="238.56 235.81 238.56 235.81 238.56 235.81 238.56 235.81 238.56 235.81 238.56 235.81"/><polygon class="cls-6" points="238.56 235.81 238.56 235.81 238.56 235.81 238.56 235.81 238.56 235.81 238.56 235.81"/><polygon class="cls-6" points="238.56 235.81 238.56 235.81 238.56 235.81 238.56 235.81 238.56 235.81"/><polygon class="cls-6" points="238.56 235.81 238.56 235.81 238.56 235.81 238.56 235.81"/><polygon class="cls-6" points="238.56 235.81 238.56 235.81 238.56 235.81 238.56 235.81 238.56 235.81"/><polygon class="cls-6" points="238.56 235.81 238.56 235.81 238.56 235.81 238.56 235.81 238.56 235.81"/><polygon class="cls-6" points="238.56 235.81 238.56 235.81 238.56 235.81 238.56 235.81 238.56 235.81 238.56 235.81"/><path class="cls-6" d="M53.45,373.14c-.46-.62-.91-1.25-1.37-1.88C52.53,371.89,53,372.51,53.45,373.14Z"/><path class="cls-6" d="M58.64,379.89a228.16,228.16,0,0,0,16.69,18.64,233.54,233.54,0,0,1-17.91-20.19C57.83,378.85,58.22,379.37,58.64,379.89Z"/><path class="cls-6" d="M57,377.8c-.86-1.08-1.69-2.18-2.52-3.28C55.3,375.61,56.14,376.7,57,377.8Z"/><path class="cls-6" d="M76.07,399.27h0l-.3-.3Z"/><polygon class="cls-6" points="238.56 235.81 238.56 235.81 238.56 235.81 238.56 235.81 238.56 235.81"/><polygon class="cls-6" points="238.57 235.81 238.57 235.81 238.57 235.81 238.56 235.81 238.57 235.81"/><polygon class="cls-6" points="238.57 235.81 238.57 235.81 238.57 235.81 238.57 235.81 238.57 235.81"/><polygon class="cls-6" points="238.56 235.81 238.56 235.81 238.56 235.81 238.56 235.81 238.56 235.81"/><polygon class="cls-6" points="238.56 235.81 238.56 235.81 238.56 235.81 238.56 235.81 238.56 235.81 238.56 235.81 238.56 235.81"/><polygon class="cls-6" points="238.56 235.81 238.56 235.81 238.56 235.81 238.56 235.81 238.56 235.81 238.56 235.81"/><polygon class="cls-6" points="238.56 235.81 238.56 235.81 238.56 235.81 238.56 235.81"/><polygon class="cls-6" points="238.56 235.81 238.56 235.81 238.56 235.81 238.56 235.81"/><polygon class="cls-6" points="238.56 235.81 238.56 235.81 238.56 235.81 238.56 235.81 238.56 235.81 238.56 235.81 238.56 235.81"/><polygon class="cls-6" points="238.56 235.81 238.56 235.81 238.56 235.81 238.56 235.81"/><polygon class="cls-6" points="238.56 235.81 238.56 235.81 238.56 235.81 238.56 235.81 238.56 235.81"/><polygon class="cls-6" points="238.56 235.81 238.56 235.81 238.56 235.81 238.56 235.81 238.56 235.81 238.56 235.81 238.56 235.81 238.56 235.81"/><polygon class="cls-6" points="238.56 235.81 238.56 235.81 238.56 235.81 238.56 235.81 238.56 235.81"/><polygon class="cls-6" points="238.56 235.81 238.56 235.81 238.56 235.81 238.56 235.81"/><polygon class="cls-6" points="238.56 235.81 238.56 235.81 238.56 235.81 238.56 235.81 238.56 235.81"/><polygon class="cls-6" points="238.57 235.81 238.57 235.81 238.57 235.81 238.57 235.81"/><polygon class="cls-6" points="238.56 235.81 238.56 235.81 238.56 235.81 238.56 235.81"/><polygon class="cls-6" points="238.56 235.81 238.56 235.81 238.56 235.81 238.56 235.81"/><polygon class="cls-6" points="238.57 235.81 238.57 235.81 238.57 235.81 238.57 235.81"/><polygon class="cls-6" points="238.57 235.81 238.57 235.81 238.57 235.81 238.57 235.81 238.57 235.81 238.57 235.81 238.57 235.81 238.57 235.81"/><polygon class="cls-6" points="238.57 235.81 238.57 235.81 238.57 235.81 238.57 235.81 238.57 235.81 238.57 235.81"/><polygon class="cls-6" points="238.56 235.81 238.56 235.81 238.56 235.81 238.56 235.81 238.56 235.81"/><polygon class="cls-6" points="238.56 235.81 238.56 235.81 238.56 235.81 238.56 235.81 238.56 235.81"/><polygon class="cls-6" points="238.56 235.81 238.56 235.81 238.56 235.81 238.56 235.81 238.56 235.81 238.56 235.81"/><polygon class="cls-6" points="238.56 235.81 238.56 235.81 238.56 235.81 238.56 235.81 238.56 235.81"/><polygon class="cls-6" points="238.56 235.81 238.56 235.81 238.56 235.81 238.56 235.81"/><polygon class="cls-6" points="238.56 235.81 238.56 235.81 238.56 235.81 238.56 235.81 238.56 235.81"/><polygon class="cls-6" points="238.57 235.81 238.57 235.81 238.57 235.81 238.57 235.81 238.57 235.81 238.57 235.81 238.57 235.81"/><polygon class="cls-6" points="238.57 235.81 238.57 235.81 238.57 235.81 238.57 235.81"/><polygon class="cls-6" points="238.56 235.81 238.56 235.81 238.56 235.81 238.56 235.81"/><polygon class="cls-6" points="238.56 235.81 238.56 235.81 238.56 235.81 238.56 235.81 238.56 235.81 238.56 235.81"/><polygon class="cls-6" points="238.57 235.81 238.56 235.81 238.56 235.81 238.56 235.81 238.57 235.81"/><polygon class="cls-6" points="238.56 235.81 238.56 235.81 238.56 235.81 238.56 235.81 238.56 235.81 238.56 235.81"/><polygon class="cls-6" points="238.56 235.81 238.56 235.81 238.56 235.81 238.56 235.81"/><polygon class="cls-6" points="238.56 235.81 238.56 235.81 238.56 235.81 238.56 235.81 238.56 235.81"/><polygon class="cls-6" points="238.56 235.81 238.56 235.81 238.56 235.81 238.56 235.81 238.56 235.81 238.56 235.81 238.56 235.81"/><polygon class="cls-6" points="238.56 235.81 238.56 235.81 238.56 235.81 238.56 235.81"/><polygon class="cls-6" points="238.56 235.81 238.56 235.81 238.56 235.81 238.56 235.81 238.56 235.81"/><polygon class="cls-6" points="238.56 235.81 238.56 235.81 238.56 235.81 238.56 235.81 238.56 235.81"/><polygon class="cls-6" points="238.56 235.81 238.56 235.81 238.56 235.81 238.56 235.81"/><polygon class="cls-6" points="238.56 235.81 238.56 235.81 238.56 235.81 238.56 235.81 238.56 235.81 238.56 235.81"/><polygon class="cls-6" points="238.57 235.81 238.57 235.81 238.57 235.81 238.57 235.81 238.57 235.81"/><rect class="cls-6" x="238.57" y="235.81"/><polygon class="cls-6" points="238.57 235.81 238.57 235.81 238.57 235.81 238.57 235.81 238.57 235.81"/><polygon class="cls-6" points="238.56 235.81 238.56 235.81 238.56 235.81 238.56 235.81 238.56 235.81"/><polygon class="cls-6" points="238.56 235.81 238.56 235.81 238.56 235.81 238.56 235.81 238.56 235.81 238.56 235.81"/><polygon class="cls-6" points="238.56 235.81 238.56 235.81 238.56 235.81 238.56 235.81 238.56 235.81"/><polygon class="cls-6" points="238.56 235.81 238.56 235.81 238.56 235.81 238.56 235.81 238.56 235.81"/><polygon class="cls-6" points="238.56 235.81 238.56 235.81 238.56 235.81 238.56 235.81 238.56 235.81 238.56 235.81"/><polygon class="cls-6" points="238.56 235.81 238.56 235.81 238.57 235.81 238.57 235.81 238.56 235.81 238.56 235.81"/><polygon class="cls-6" points="238.56 235.81 238.56 235.81 238.56 235.81 238.56 235.81"/><polygon class="cls-6" points="238.56 235.81 238.56 235.81 238.56 235.81 238.56 235.81"/><polygon class="cls-6" points="238.56 235.81 238.56 235.81 238.56 235.81 238.56 235.81 238.56 235.81 238.56 235.81"/><polygon class="cls-6" points="238.56 235.81 238.56 235.81 238.56 235.81 238.56 235.81 238.56 235.81 238.56 235.81"/><polygon class="cls-6" points="238.56 235.81 238.56 235.81 238.56 235.81 238.56 235.81 238.56 235.81"/><polygon class="cls-6" points="238.57 235.81 238.57 235.81 238.57 235.81 238.57 235.81 238.57 235.81 238.57 235.81"/><polygon class="cls-6" points="238.57 235.81 238.57 235.81 238.57 235.81 238.57 235.81"/><polygon class="cls-6" points="238.57 235.81 238.57 235.81 238.57 235.81 238.57 235.81 238.57 235.81"/><rect class="cls-6" x="238.57" y="235.81"/><polygon class="cls-6" points="238.57 235.81 238.57 235.81 238.57 235.81 238.57 235.81 238.57 235.81"/><polygon class="cls-6" points="238.57 235.81 238.56 235.81 238.56 235.81 238.57 235.81"/><polygon class="cls-6" points="238.57 235.81 238.57 235.81 238.57 235.81 238.57 235.81 238.57 235.81"/><polygon class="cls-6" points="238.56 235.81 238.57 235.81 238.56 235.81 238.56 235.81 238.56 235.81"/><polygon class="cls-6" points="238.57 235.81 238.57 235.81 238.57 235.81 238.57 235.81 238.57 235.81"/><polygon class="cls-6" points="238.57 235.81 238.57 235.81 238.57 235.81 238.57 235.81"/><polygon class="cls-6" points="238.57 235.81 238.57 235.81 238.57 235.81 238.57 235.81 238.57 235.81 238.57 235.81"/><polygon class="cls-6" points="238.56 235.81 238.56 235.81 238.56 235.81 238.56 235.81 238.56 235.81"/><polygon class="cls-6" points="238.57 235.81 238.57 235.81 238.57 235.81 238.56 235.81 238.57 235.81"/><polygon class="cls-6" points="238.57 235.81 238.57 235.81 238.57 235.81 238.57 235.81 238.57 235.81"/><polygon class="cls-6" points="238.57 235.81 238.57 235.81 238.57 235.81 238.57 235.81"/><polygon class="cls-6" points="238.57 235.81 238.57 235.81 238.57 235.81 238.57 235.81 238.57 235.81 238.57 235.81"/><polygon class="cls-6" points="238.57 235.81 238.57 235.81 238.57 235.81 238.57 235.81"/><polygon class="cls-6" points="238.56 235.81 238.56 235.81 238.57 235.81 238.57 235.81 238.57 235.81 238.56 235.81 238.56 235.81"/><polygon class="cls-6" points="238.56 235.81 238.56 235.81 238.56 235.81 238.56 235.81"/><polygon class="cls-6" points="238.57 235.81 238.57 235.81 238.57 235.81 238.57 235.81"/><polygon class="cls-6" points="238.57 235.81 238.57 235.81 238.57 235.81 238.57 235.81 238.57 235.81 238.57 235.81"/><polygon class="cls-6" points="238.57 235.81 238.57 235.81 238.57 235.81 238.57 235.81 238.57 235.81"/><polygon class="cls-6" points="238.57 235.81 238.57 235.81 238.57 235.81 238.57 235.81"/><polygon class="cls-6" points="238.57 235.81 238.57 235.81 238.57 235.81 238.57 235.81 238.57 235.81"/><polygon class="cls-6" points="238.57 235.81 238.57 235.81 238.57 235.81 238.57 235.81 238.57 235.81 238.57 235.81 238.57 235.81"/><polygon class="cls-6" points="238.57 235.81 238.57 235.81 238.57 235.81 238.57 235.81 238.57 235.81 238.57 235.81 238.57 235.81"/><polygon class="cls-6" points="238.57 235.81 238.57 235.81 238.57 235.81 238.57 235.81 238.57 235.81"/><polygon class="cls-6" points="238.57 235.81 238.57 235.81 238.57 235.81 238.57 235.81 238.57 235.81"/><polygon class="cls-6" points="238.57 235.81 238.57 235.81 238.57 235.81 238.57 235.81"/><polygon class="cls-6" points="238.57 235.81 238.57 235.81 238.57 235.81 238.57 235.81"/><polygon class="cls-6" points="238.57 235.81 238.57 235.81 238.57 235.81 238.57 235.81 238.57 235.81 238.57 235.81 238.57 235.81"/><polygon class="cls-6" points="238.57 235.81 238.57 235.81 238.57 235.81 238.57 235.81 238.57 235.81 238.56 235.81 238.56 235.81 238.57 235.81"/><polygon class="cls-6" points="238.57 235.81 238.57 235.81 238.57 235.81 238.57 235.81"/><polygon class="cls-6" points="401.59 398.74 401.59 398.74 401.59 398.74 401.59 398.74"/><path class="cls-6" d="M380.64,417.31c-1.16.9-2.33,1.8-3.51,2.68Q378.89,418.69,380.64,417.31Z"/><path class="cls-6" d="M382.16,416.12a226.06,226.06,0,0,0,19.28-17.23A232.12,232.12,0,0,1,381,417.05Z"/><path class="cls-6" d="M375.72,421.05c-.67.5-1.36,1-2,1.49Z"/><polygon class="cls-6" points="238.57 235.81 238.57 235.81 238.57 235.81 238.57 235.81"/><polygon class="cls-6" points="238.57 235.81 238.57 235.81 238.57 235.81 238.57 235.81 238.57 235.81"/><polygon class="cls-6" points="238.56 235.81 238.56 235.81 238.56 235.81 238.56 235.81 238.56 235.81"/><polygon class="cls-6" points="238.56 235.81 238.56 235.81 238.56 235.81 238.56 235.81 238.56 235.81"/><polygon class="cls-6" points="238.56 235.81 238.56 235.81 238.56 235.81 238.56 235.81"/><polygon class="cls-6" points="238.56 235.81 238.56 235.81 238.56 235.81 238.56 235.81 238.56 235.81"/><polygon class="cls-6" points="238.56 235.81 238.56 235.81 238.56 235.81 238.56 235.81 238.56 235.81"/><polygon class="cls-6" points="238.57 235.81 238.56 235.81 238.57 235.81 238.57 235.81 238.57 235.81 238.57 235.81 238.57 235.81"/><polygon class="cls-6" points="238.57 235.81 238.57 235.81 238.57 235.81 238.57 235.81"/><polygon class="cls-6" points="238.57 235.81 238.56 235.81 238.57 235.81 238.57 235.81 238.57 235.81"/><polygon class="cls-6" points="238.56 235.81 238.56 235.81 238.57 235.81 238.56 235.81 238.56 235.81"/><polygon class="cls-6" points="238.56 235.81 238.56 235.81 238.57 235.81 238.56 235.81 238.56 235.81 238.56 235.81"/><polygon class="cls-6" points="238.56 235.81 238.56 235.81 238.57 235.81 238.57 235.81 238.57 235.81 238.56 235.81"/><polygon class="cls-6" points="238.56 235.81 238.56 235.81 238.56 235.81 238.56 235.81 238.56 235.81"/><polygon class="cls-6" points="238.56 235.81 238.56 235.81 238.56 235.81 238.56 235.81 238.56 235.81"/><polygon class="cls-6" points="238.56 235.81 238.56 235.81 238.56 235.81 238.56 235.81 238.56 235.81 238.56 235.81"/><polygon class="cls-6" points="238.56 235.81 238.56 235.81 238.56 235.81 238.56 235.81 238.56 235.81"/><polygon class="cls-6" points="238.56 235.81 238.56 235.81 238.56 235.81 238.56 235.81"/><polygon class="cls-6" points="238.56 235.81 238.56 235.81 238.56 235.81 238.56 235.81 238.56 235.81"/><polygon class="cls-6" points="238.56 235.81 238.56 235.81 238.56 235.81 238.56 235.81"/><polygon class="cls-6" points="238.56 235.81 238.56 235.81 238.56 235.81 238.56 235.81 238.56 235.81 238.56 235.81"/><polygon class="cls-6" points="238.57 235.81 238.57 235.81 238.57 235.81 238.57 235.81 238.57 235.81 238.57 235.81"/><polygon class="cls-6" points="238.57 235.81 238.57 235.81 238.57 235.81 238.57 235.81"/><polygon class="cls-6" points="238.57 235.81 238.57 235.81 238.57 235.81 238.57 235.81 238.57 235.81"/><polygon class="cls-6" points="238.57 235.81 238.57 235.81 238.57 235.81 238.57 235.81 238.57 235.81 238.57 235.81"/><polygon class="cls-6" points="238.57 235.81 238.57 235.81 238.57 235.81 238.57 235.81 238.57 235.81"/><polygon class="cls-6" points="238.57 235.81 238.57 235.81 238.57 235.81 238.57 235.81"/><polygon class="cls-6" points="238.56 235.81 238.56 235.81 238.56 235.81 238.56 235.81"/><polygon class="cls-6" points="238.57 235.81 238.57 235.81 238.57 235.81 238.57 235.81 238.57 235.81"/><polygon class="cls-6" points="238.56 235.81 238.56 235.81 238.56 235.81 238.56 235.81"/><polygon class="cls-6" points="238.57 235.81 238.57 235.81 238.57 235.81 238.57 235.81"/><polygon class="cls-6" points="238.56 235.81 238.56 235.81 238.56 235.81 238.56 235.81 238.56 235.81"/><polygon class="cls-6" points="238.56 235.81 238.56 235.81 238.56 235.81 238.56 235.81"/><rect class="cls-6" x="238.56" y="235.81"/><rect class="cls-6" x="238.56" y="235.81"/><polygon class="cls-6" points="238.56 235.81 238.56 235.81 238.56 235.81 238.56 235.81 238.56 235.81 238.56 235.81 238.56 235.81"/><polygon class="cls-6" points="238.56 235.81 238.56 235.81 238.57 235.81 238.57 235.81 238.56 235.81"/><polygon class="cls-6" points="238.56 235.81 238.56 235.81 238.56 235.81 238.56 235.81 238.56 235.81 238.56 235.81"/><polygon class="cls-6" points="238.56 235.81 238.56 235.81 238.56 235.81 238.56 235.81"/><polygon class="cls-6" points="238.56 235.81 238.56 235.81 238.56 235.81 238.56 235.81 238.56 235.81"/><polygon class="cls-6" points="238.56 235.81 238.56 235.81 238.56 235.81 238.56 235.81 238.56 235.81 238.56 235.81"/><polygon class="cls-6" points="238.56 235.81 238.56 235.81 238.56 235.81 238.56 235.81 238.56 235.81"/><polygon class="cls-6" points="238.57 235.81 238.57 235.81 238.57 235.81 238.57 235.81 238.57 235.81 238.57 235.81"/><polygon class="cls-6" points="238.57 235.81 238.57 235.81 238.57 235.81 238.57 235.81 238.57 235.81 238.57 235.81"/><polygon class="cls-6" points="238.57 235.81 238.57 235.81 238.57 235.81 238.57 235.81"/><polygon class="cls-6" points="238.56 235.81 238.56 235.81 238.56 235.81 238.56 235.81 238.56 235.81"/><polygon class="cls-6" points="238.56 235.81 238.56 235.81 238.57 235.81 238.57 235.81 238.57 235.81 238.56 235.81"/><polygon class="cls-6" points="238.57 235.81 238.57 235.81 238.57 235.81 238.57 235.81 238.57 235.81"/><polygon class="cls-6" points="238.56 235.81 238.56 235.81 238.56 235.81 238.56 235.81 238.56 235.81 238.56 235.81"/><polygon class="cls-6" points="238.56 235.81 238.56 235.81 238.56 235.81 238.56 235.81 238.56 235.81"/><polygon class="cls-6" points="238.56 235.81 238.56 235.81 238.56 235.81 238.56 235.81"/><polygon class="cls-6" points="238.56 235.81 238.56 235.81 238.56 235.81 238.56 235.81 238.56 235.81"/><rect class="cls-6" x="238.57" y="235.81"/><polygon class="cls-6" points="238.57 235.81 238.57 235.81 238.57 235.81 238.57 235.81"/><polygon class="cls-6" points="238.57 235.81 238.57 235.81 238.57 235.81 238.57 235.81 238.57 235.81"/><polygon class="cls-6" points="238.56 235.81 238.56 235.81 238.56 235.81 238.56 235.81 238.56 235.81 238.56 235.81"/><polygon class="cls-6" points="238.56 235.81 238.56 235.81 238.56 235.81 238.56 235.81"/><polygon class="cls-6" points="238.56 235.81 238.56 235.81 238.56 235.81 238.56 235.81 238.56 235.81 238.56 235.81"/><polygon class="cls-6" points="238.56 235.81 238.56 235.81 238.56 235.81 238.56 235.81 238.56 235.81"/><polygon class="cls-6" points="238.56 235.81 238.56 235.81 238.56 235.81 238.56 235.81"/><polygon class="cls-6" points="238.56 235.81 238.56 235.81 238.56 235.81 238.56 235.81 238.56 235.81 238.56 235.81"/><polygon class="cls-6" points="238.57 235.81 238.57 235.81 238.57 235.81 238.57 235.81"/><polygon class="cls-6" points="238.57 235.81 238.57 235.81 238.57 235.81 238.57 235.81 238.57 235.81"/><polygon class="cls-6" points="238.57 235.81 238.57 235.81 238.57 235.81 238.57 235.81"/><polygon class="cls-6" points="238.57 235.81 238.57 235.81 238.57 235.81 238.57 235.81"/><polygon class="cls-6" points="238.57 235.81 238.57 235.81 238.57 235.81 238.57 235.81 238.57 235.81"/><polygon class="cls-6" points="238.57 235.81 238.57 235.81 238.57 235.81 238.57 235.81 238.57 235.81 238.57 235.81"/><polygon class="cls-6" points="238.57 235.81 238.57 235.81 238.57 235.81 238.57 235.81 238.57 235.81"/><polygon class="cls-6" points="238.57 235.81 238.57 235.81 238.57 235.81 238.57 235.81 238.57 235.81 238.57 235.81"/><polygon class="cls-6" points="238.57 235.81 238.57 235.81 238.57 235.81 238.57 235.81 238.57 235.81"/><polygon class="cls-6" points="238.57 235.81 238.57 235.81 238.57 235.81 238.57 235.81 238.57 235.81"/><circle class="cls-3" cx="238.56" cy="235.81" r="44.27"/><path class="cls-7" d="M238.37,4.47C110.84,4.47,7.46,107.85,7.46,235.38S110.84,466.29,238.37,466.29,469.29,362.91,469.29,235.38,365.9,4.47,238.37,4.47ZM238,437.27c-111.26,0-201.45-90.19-201.45-201.45S126.78,34.36,238,34.36s201.45,90.2,201.45,201.46S349.3,437.27,238,437.27Z"/><path class="cls-6" d="M238.56,5.32A232.29,232.29,0,0,1,262,6.5,226.91,226.91,0,0,0,238.56,5.32Z"/><path class="cls-8" d="M438.51,310.83a1.62,1.62,0,0,1-.1.18,5.29,5.29,0,0,1-.29,1c.12-.21.06,1.64,0,.69,0,.15,0,.49,0,.64v-.33a2.67,2.67,0,0,0,.07.27c.09.11.26.26.34.34l0,0c.21-.86.41-1.72.61-2.58A3.58,3.58,0,0,1,438.51,310.83Z"/><circle class="cls-9" cx="238.57" cy="235.81" r="30.31" transform="translate(-72.08 109.24) rotate(-22.5)"/><path class="cls-9" d="M238.37,470.76A235.38,235.38,0,0,1,71.93,68.94,235.38,235.38,0,0,1,404.81,401.82,233.8,233.8,0,0,1,238.37,470.76Zm0-461.82C113.51,8.94,11.93,110.52,11.93,235.38S113.51,461.83,238.37,461.83,464.82,360.24,464.82,235.38,363.23,8.94,238.37,8.94Z"/><path class="cls-9" d="M238,441.74A205.92,205.92,0,0,1,92.43,90.21,205.92,205.92,0,0,1,383.65,381.43,204.59,204.59,0,0,1,238,441.74Zm0-402.91c-108.62,0-197,88.37-197,197s88.36,197,197,197,197-88.37,197-197S346.66,38.83,238,38.83Z"/><path class="cls-2" d="M117.82,462.32l-3.9,49.25q5,1.74,10.47,3.5Z"/><rect class="cls-2" x="110.51" y="575.67" width="9.14" height="25.85"/><circle class="cls-10" cx="37.63" cy="153.13" r="6.04" transform="translate(-120.04 154.7) rotate(-76.76)"/><circle class="cls-11" cx="389.31" cy="81.03" r="6.04"/><circle class="cls-11" cx="319.94" cy="35.05" r="6.04" transform="translate(68.93 236.5) rotate(-45)"/><circle class="cls-11" cx="434.68" cy="147.68" r="6.04"/><circle class="cls-11" cx="452.95" cy="230.77" r="6.04"/><circle class="cls-11" cx="439.06" cy="311.58" r="6.04"/><circle class="cls-11" cx="395.18" cy="384.32" r="6.04" transform="translate(-69.65 680.63) rotate(-76.72)"/><circle class="cls-11" cx="321.57" cy="434.41" r="6.04"/><circle class="cls-11" cx="237.27" cy="451.99" r="6.04"/><circle class="cls-11" cx="156.6" cy="434.41" r="6.04"/><circle class="cls-11" cx="87.46" cy="390.36" r="6.04"/><circle class="cls-11" cx="38.55" cy="318.63" r="6.04"/><circle class="cls-11" cx="21.73" cy="233.61" r="6.04"/><circle class="cls-11" cx="86.05" cy="81.23" r="6.04"/><circle class="cls-11" cx="157.05" cy="35.05" r="6.04" transform="translate(86.86 179.85) rotate(-76.72)"/><circle class="cls-11" cx="243.3" cy="18.48" r="6.04"/><path class="cls-12" d="M64.86,174.1,0,143.06l16.05-33.54,64.86,31,16.67,28.6Z"/><path class="cls-13" d="M77.8,144.06l15,25.81,4.73-.71-16.67-28.6-64.86-31-1.94,4Z"/></g></g></svg>