<svg xmlns="http://www.w3.org/2000/svg" viewBox="0 0 461.04 458.16"><defs><style>.cls-1{fill:#ff5858;}.cls-2{fill:#9a1663;}.cls-3{font-size:27px;fill:#fff;font-family:BrushScriptMT, Brush Script MT;}</style></defs><g id="Layer_2" data-name="Layer 2"><g id="Layer_1-2" data-name="Layer 1"><path class="cls-1" d="M427.34,107.71c-2.89-4.76-6.15-9.74-9.83-14.85q-2.16-3-4.32-5.79l0,0a229.76,229.76,0,0,0-47.86-46.33L230.51,227.64h0ZM413.19,87.07c-.55-.72-1.1-1.42-1.65-2.11C412.09,85.65,412.64,86.35,413.19,87.07ZM402.86,74.61l-1.78-2Zm7.84,9.29-1-1.26Zm-1.84-2.27-1.23-1.49C408,80.63,408.45,81.12,408.86,81.63ZM407,79.4c-.56-.67-1.12-1.32-1.68-2C405.89,78.08,406.45,78.73,407,79.4Zm-2.3-2.69c-.43-.49-.85-1-1.28-1.46C403.86,75.73,404.28,76.22,404.71,76.71Z"/><path class="cls-2" d="M455.75,178.67l-.21-1c-.19-.85-.4-1.73-.6-2.6-.3-1.26-.59-2.53-.91-3.79l-.12-.45a232.2,232.2,0,0,0-35.7-77.06h0c3.4,4.77,6.45,9.43,9.16,13.89L230.51,227.64h0l227.54-36.77C457.42,187,456.66,182.89,455.75,178.67Z"/><path class="cls-2" d="M230.51,227.65h0Q212.48,113.82,194.44,0q-5.88.92-12.25,2.27l-1.14.24-2.9.67c-1.42.33-2.83.66-4.25,1h0Q162.89,7,152,11l-.66.23A230.29,230.29,0,0,0,96,40.47l0,0c4.81-3.45,9.5-6.55,14-9.29L230.51,227.64Z"/><path class="cls-1" d="M230.51,227.65h0L110,31.2c-4.75,2.9-9.72,6.18-14.82,9.87-2,1.44-3.91,2.89-5.77,4.33v0A229.44,229.44,0,0,0,43.23,93.31L230.51,227.65h0ZM77,55.77c-.68.6-1.34,1.2-2,1.8C75.61,57,76.27,56.37,77,55.77ZM89.38,45.4l-2.12,1.66Zm-3.15,2.49-1.29,1ZM84,49.74,82.42,51Zm-2.24,1.87-2,1.68ZM79,53.91,77.58,55.2Z"/><path class="cls-2" d="M365.35,40.72a230.49,230.49,0,0,0-81.3-37.24q-26.78,112.08-53.54,224.16h0Z"/><path class="cls-1" d="M194.44,0q18,113.82,36.07,227.64h0Q257.29,115.56,284.05,3.46Z"/><path class="cls-1" d="M366.53,413.91c1.85-1.35,3.65-2.69,5.4-4v0c18.37-14.14,32.25-29.7,45.46-48.16-63.65-45.66-123.29-88.24-186.94-133.9h0c41,66.77,80,129.38,121,196.15C356.26,421,361.33,417.68,366.53,413.91Zm18.55-15c.69-.61,1.37-1.23,2-1.84C386.45,397.7,385.77,398.32,385.08,398.93Zm-11.91,10c.39-.31.79-.61,1.17-.92C374,408.29,373.56,408.59,373.17,408.9Zm2.4-1.9,1.17-.94Zm2.28-1.85c.65-.54,1.29-1.07,1.91-1.6C379.14,404.08,378.5,404.61,377.85,405.15Zm2.81-2.35,1.49-1.28Zm2.31-2,1.43-1.26Z"/><path class="cls-2" d="M364.64,415.13v0c-4.66,3.33-9.21,6.33-13.58,9L230.51,227.65h0q18,113.82,36.07,227.64c3.89-.61,8-1.35,12.16-2.25l1.3-.28,2.77-.63A232.39,232.39,0,0,0,309,444.34l.67-.23A230.59,230.59,0,0,0,364.64,415.13Z"/><path class="cls-1" d="M458,264.63c.59-3.6,1.07-7.11,1.46-10.52h0a229,229,0,0,0-1.81-65.35c.12.71.24,1.42.35,2.12L230.51,227.65h0l224,54.43C455.8,276.67,457,270.85,458,264.63Zm1.86-14.24c0-.28.05-.56.08-.84C459.94,249.83,459.91,250.11,459.89,250.39Zm.32-3.65.09-1Zm.27-3.66c0-.32,0-.65.07-1C460.53,242.43,460.51,242.76,460.48,243.08Z"/><path class="cls-1" d="M457.7,188.75c-.18-1-.36-2.07-.56-3.11C457.34,186.69,457.52,187.73,457.7,188.75Z"/><path class="cls-1" d="M457.7,188.76h0Z"/><path class="cls-1" d="M457.14,185.64c-.21-1.13-.43-2.28-.66-3.44C456.71,183.35,456.93,184.5,457.14,185.64Z"/><path class="cls-2" d="M421.68,356.4l1.43-2.13c.29-.43.57-.87.85-1.31.79-1.21,1.57-2.43,2.33-3.66l.26-.43A230.33,230.33,0,0,0,439.44,325l.2-.42c.07-.14.13-.29.2-.44a230.76,230.76,0,0,0,14.62-42L230.51,227.65h0L417.8,362C419.09,360.2,420.39,358.32,421.68,356.4Z"/><path class="cls-2" d="M454.69,281.16c.14-.56.27-1.12.4-1.68C455,280.05,454.83,280.61,454.69,281.16Z"/><path class="cls-2" d="M455.09,279.48c.43-1.83.84-3.69,1.24-5.61C455.94,275.75,455.52,277.62,455.09,279.48Z"/><path class="cls-2" d="M454.69,281.16c-.07.31-.15.61-.23.92h0Z"/><path class="cls-1" d="M230.51,227.65h0Q203.75,339.75,177,451.83c5.42,1.3,11.25,2.49,17.47,3.48a225.79,225.79,0,0,0,22.49,2.42h0v0a229.22,229.22,0,0,0,49.65-2.47q-18-113.82-36.07-227.64Z"/><path class="cls-1" d="M268.77,454.93l-2.19.36h0Z"/><path class="cls-2" d="M230.51,227.65,95.68,414.58c1.88,1.36,3.85,2.73,5.87,4.1.7.47,1.4.95,2.11,1.41l1.47,1c1.24.8,2.48,1.6,3.73,2.37l.36.22a232.65,232.65,0,0,0,24.08,13l.2.09h0A231.18,231.18,0,0,0,177,451.82q26.76-112.1,53.53-224.17Z"/><path class="cls-2" d="M181.15,452.79l-.89-.2.89.2Z"/><path class="cls-2" d="M180.26,452.59l-3.28-.77h0C178.05,452.09,179.15,452.34,180.26,452.59Z"/><path class="cls-2" d="M5.9,176c-.42,1.82-.83,3.67-1.23,5.58Q5.25,178.74,5.9,176Z"/><path class="cls-2" d="M5.9,176c.14-.61.29-1.22.43-1.82C6.19,174.74,6,175.34,5.9,176Z"/><path class="cls-2" d="M230.51,227.65h0L43.22,93.31c-1.32,1.83-2.65,3.75-4,5.73L38,101c-.31.47-.63,1-.94,1.45-.75,1.16-1.49,2.32-2.22,3.49l-.36.58a233.06,233.06,0,0,0-12.81,23.75c-.08.19-.18.38-.26.57l-.17.38a231.82,231.82,0,0,0-14.63,42l224,54.44Z"/><path class="cls-2" d="M6.55,173.21c-.08.3-.15.62-.22.92.07-.31.16-.61.23-.92Z"/><path class="cls-1" d="M1.93,198c-.12.87-.22,1.75-.33,2.63,0,.24-.05.47-.08.71a229,229,0,0,0,1.79,65.15l-.33-2,227.53-36.76h0l-224-54.44C5.22,178.62,4,184.45,3,190.66c-.27,1.65-.5,3.27-.73,4.88l0-.23c-.09.67-.19,1.35-.28,2C2,197.54,2,197.76,1.93,198Zm-.08.63c-.08.63-.16,1.26-.23,1.88C1.69,199.86,1.77,199.23,1.85,198.6ZM.44,213.78c0,.94-.11,1.88-.15,2.81C.33,215.66.39,214.72.44,213.78Zm1-11.94c-.06.59-.13,1.17-.19,1.76C1.33,203,1.4,202.43,1.46,201.84Zm-.32,3.1c-.06.58-.12,1.15-.17,1.73C1,206.09,1.08,205.52,1.14,204.94Zm-.28,3c0,.6-.1,1.18-.14,1.77C.76,209.13.81,208.55.86,208Zm-.23,3c-.05.64-.09,1.28-.13,1.91C.54,212.18.58,211.54.63,210.9Z"/><path class="cls-1" d="M2.44,194.22l-.15,1.09.15-1.09Z"/><path class="cls-1" d="M3.31,266.46l0,.16Z"/><path class="cls-1" d="M3.34,266.62c.15.85.3,1.71.46,2.56C3.64,268.32,3.49,267.46,3.34,266.62Z"/><path class="cls-1" d="M3.8,269.18c.24,1.32.49,2.66.76,4C4.29,271.86,4,270.52,3.8,269.18Z"/><path class="cls-1" d="M95.68,414.58,230.51,227.65h0L33.69,347.58c2.89,4.76,6.15,9.74,9.83,14.85,1.94,2.7,3.9,5.28,5.84,7.75l0,0A229.6,229.6,0,0,0,95.68,414.58ZM55,377.05c-.17-.19-.33-.39-.49-.58C54.67,376.66,54.83,376.86,55,377.05ZM57.56,380l-.59-.67Z"/><path class="cls-2" d="M44.39,363.62l-.87-1.19c-3.68-5.11-6.94-10.09-9.83-14.85L230.51,227.65h0L3,264.41c.63,3.94,1.4,8.06,2.32,12.32l.18.81c.19.89.41,1.79.62,2.69.29,1.23.57,2.45.88,3.68,0,.18.09.36.14.54Q10,295.66,14,306.77l0,.05a230.7,230.7,0,0,0,30.31,56.83Z"/><text class="cls-3" transform="translate(324.41 132.27) rotate(46.9)">1</text><text class="cls-3" transform="matrix(0.64, 0.76, -0.76, 0.64, 329.26, 137.44)"> </text><text class="cls-3" transform="translate(333.99 143.06) rotate(52.91)"> </text><text class="cls-3" transform="matrix(0.57, 0.82, -0.82, 0.57, 338.43, 148.98)"> </text><text class="cls-3" transform="translate(342.56 155) rotate(58.89)"> </text><text class="cls-3" transform="matrix(0.47, 0.88, -0.88, 0.47, 346.37, 161.31)"> </text><text class="cls-3" transform="translate(349.84 167.78) rotate(64.95)"> </text><text class="cls-3" transform="translate(352.99 174.33) rotate(68.85)">2</text><text class="cls-3" transform="translate(357.1 185.12) rotate(72.77)"> </text><text class="cls-3" transform="translate(359.27 192.13) rotate(75.83)"> </text><text class="cls-3" transform="translate(361.08 199.25) rotate(78.89)"> </text><text class="cls-3" transform="translate(362.5 206.45) rotate(81.94)"> </text><text class="cls-3" transform="matrix(0.09, 1, -1, 0.09, 363.54, 213.75)"> </text><text class="cls-3" transform="translate(364.18 221.06) rotate(88.04)"> </text><text class="cls-3" transform="translate(364.56 228.32) rotate(92.31)">3</text><text class="cls-3" transform="translate(363.92 241.74) rotate(96.57)"> </text><text class="cls-3" transform="translate(363.08 249.04) rotate(99.6)"> </text><text class="cls-3" transform="translate(361.86 256.29) rotate(102.62)"> </text><text class="cls-3" transform="translate(360.26 263.46) rotate(105.64)"> </text><text class="cls-3" transform="translate(358.28 270.55) rotate(108.67)"> </text><text class="cls-3" transform="translate(356.03 277.47) rotate(112.48)">4</text><text class="cls-3" transform="translate(351.68 287.83) rotate(116.31)"> </text><text class="cls-3" transform="matrix(-0.49, 0.87, -0.87, -0.49, 348.42, 294.42)"> </text><text class="cls-3" transform="translate(344.84 300.82) rotate(122.4)"> </text><text class="cls-3" transform="matrix(-0.58, 0.81, -0.81, -0.58, 340.9, 307.03)"> </text><text class="cls-3" transform="translate(336.64 313.02) rotate(128.53)"> </text><text class="cls-3" transform="translate(332.08 318.76) rotate(131.59)"> </text><text class="cls-3" transform="translate(327.28 324.28) rotate(135.45)">5</text><text class="cls-3" transform="translate(319.25 332.1) rotate(139.28)"> </text><text class="cls-3" transform="matrix(-0.79, 0.61, -0.61, -0.79, 313.68, 336.91)"> </text><text class="cls-3" transform="translate(307.86 341.41) rotate(145.31)"> </text><text class="cls-3" transform="translate(301.83 345.6) rotate(148.29)"> </text><text class="cls-3" transform="matrix(-0.88, 0.48, -0.48, -0.88, 295.58, 349.47)"> </text><text class="cls-3" transform="matrix(-0.9, 0.43, -0.43, -0.9, 289.12, 353.01)"> </text><text class="cls-3" transform="translate(282.58 356.23) rotate(158.13)">6</text><text class="cls-3" transform="translate(272.39 360.26) rotate(161.93)"> </text><text class="cls-3" transform="matrix(-0.97, 0.26, -0.26, -0.97, 265.41, 362.55)"> </text><text class="cls-3" transform="translate(258.3 364.46) rotate(168.06)"> </text><text class="cls-3" transform="matrix(-0.99, 0.15, -0.15, -0.99, 251.11, 365.99)"> </text><text class="cls-3" transform="matrix(-0.99, 0.1, -0.1, -0.99, 243.85, 367.13)"> </text><text class="cls-3" transform="matrix(-1, 0.05, -0.05, -1, 236.54, 367.88)"> </text><text class="cls-3" transform="translate(229.27 368.32) rotate(-178.91)">7</text><text class="cls-3" transform="translate(217.77 368.04) rotate(-175.04)"> </text><text class="cls-3" transform="translate(210.45 367.41) rotate(-172.02)"> </text><text class="cls-3" transform="translate(203.17 366.39) rotate(-169)"> </text><text class="cls-3" transform="matrix(-0.97, -0.24, 0.24, -0.97, 195.95, 365)"> </text><text class="cls-3" transform="matrix(-0.96, -0.29, 0.29, -0.96, 188.82, 363.22)"> </text><text class="cls-3" transform="translate(181.8 361.08) rotate(-159.93)"> </text><text class="cls-3" transform="translate(174.91 358.65) rotate(-155.98)">8</text><text class="cls-3" transform="translate(164.18 353.8) rotate(-152.04)"> </text><text class="cls-3" transform="matrix(-0.86, -0.52, 0.52, -0.86, 157.67, 350.35)"> </text><text class="cls-3" transform="matrix(-0.83, -0.56, 0.56, -0.83, 151.37, 346.57)"> </text><text class="cls-3" transform="translate(145.28 342.46) rotate(-142.87)"> </text><text class="cls-3" transform="matrix(-0.76, -0.65, 0.65, -0.76, 139.42, 338.03)"> </text><text class="cls-3" transform="translate(133.81 333.3) rotate(-136.75)"> </text><text class="cls-3" transform="translate(128.44 328.38) rotate(-132.73)">9</text><text class="cls-3" transform="translate(120.31 319.46) rotate(-128.74)"> </text><text class="cls-3" transform="matrix(-0.58, -0.81, 0.81, -0.58, 115.7, 313.73)"> </text><text class="cls-3" transform="matrix(-0.54, -0.84, 0.84, -0.54, 111.41, 307.77)"> </text><text class="cls-3" transform="translate(107.43 301.59) rotate(-119.74)"> </text><text class="cls-3" transform="translate(103.77 295.21) rotate(-116.71)"> </text><text class="cls-3" transform="translate(100.47 288.65) rotate(-113.72)">1</text><text class="cls-3" transform="translate(97.56 282.24) rotate(-109.86)">0</text><text class="cls-3" transform="translate(93.7 271.38) rotate(-105.94)"> </text><text class="cls-3" transform="matrix(-0.22, -0.97, 0.97, -0.22, 91.68, 264.32)"> </text><text class="cls-3" transform="translate(90.04 257.17) rotate(-99.83)"> </text><text class="cls-3" transform="translate(88.78 249.92) rotate(-96.77)"> </text><text class="cls-3" transform="translate(87.9 242.62) rotate(-93.72)"> </text><text class="cls-3" transform="translate(87.42 235.3) rotate(-90.69)"> </text><text class="cls-3" transform="translate(87.33 227.95) rotate(-87.71)">1</text><text class="cls-3" transform="translate(87.61 220.85) rotate(-84.79)">1</text><text class="cls-3" transform="translate(88.24 213.79) rotate(-81.81)"> </text><text class="cls-3" transform="translate(89.29 206.52) rotate(-78.79)"> </text><text class="cls-3" transform="translate(90.71 199.31) rotate(-75.77)"> </text><text class="cls-3" transform="translate(92.51 192.18) rotate(-72.75)"> </text><text class="cls-3" transform="translate(94.69 185.15) rotate(-69.72)"> </text><text class="cls-3" transform="matrix(0.39, -0.92, 0.92, 0.39, 97.23, 178.25)">1</text><text class="cls-3" transform="translate(99.93 171.77) rotate(-62.9)">2</text><text class="cls-3" transform="translate(105.24 161.53) rotate(-59)"> </text><text class="cls-3" transform="matrix(0.56, -0.83, 0.83, 0.56, 109.01, 155.23)"> </text><text class="cls-3" transform="matrix(0.6, -0.8, 0.8, 0.6, 113.13, 149.13)"> </text><text class="cls-3" transform="translate(117.55 143.28) rotate(-49.82)"> </text><text class="cls-3" transform="matrix(0.69, -0.73, 0.73, 0.69, 122.28, 137.67)"> </text><text class="cls-3" transform="translate(127.32 132.3) rotate(-43.76)">1</text><text class="cls-3" transform="translate(132.29 127.37) rotate(-39.53)">3</text><text class="cls-3" transform="translate(142.73 118.89) rotate(-35.28)"> </text><text class="cls-3" transform="translate(148.72 114.64) rotate(-32.3)"> </text><text class="cls-3" transform="translate(154.93 110.71) rotate(-29.3)"> </text><text class="cls-3" transform="translate(161.33 107.11) rotate(-26.27)"> </text><text class="cls-3" transform="matrix(0.92, -0.39, 0.39, 0.92, 167.93, 103.85)"> </text><text class="cls-3" transform="translate(174.68 100.94) rotate(-20.21)">1</text><text class="cls-3" transform="translate(181.26 98.44) rotate(-16.41)">4</text><text class="cls-3" transform="translate(192.02 95.33) rotate(-12.56)"> </text><text class="cls-3" transform="matrix(0.99, -0.17, 0.17, 0.99, 199.2, 93.72)"> </text><text class="cls-3" transform="matrix(0.99, -0.11, 0.11, 0.99, 206.45, 92.5)"> </text><text class="cls-3" transform="translate(213.76 91.67) rotate(-3.4)"> </text><text class="cls-3" transform="translate(221.08 91.23) rotate(-0.36)"> </text><text class="cls-3" transform="translate(228.45 91.18) rotate(2.62)">1</text><text class="cls-3" transform="translate(235.48 91.42) rotate(6.38)">5</text><text class="cls-3" transform="translate(246.62 92.73) rotate(10.18)"> </text><text class="cls-3" transform="matrix(0.97, 0.23, -0.23, 0.97, 253.88, 94.03)"> </text><text class="cls-3" transform="matrix(0.96, 0.28, -0.28, 0.96, 261.01, 95.69)"> </text><text class="cls-3" transform="translate(268.08 97.74) rotate(19.26)"> </text><text class="cls-3" transform="translate(275.01 100.16) rotate(22.23)">1</text><text class="cls-3" transform="translate(281.58 102.77) rotate(25.96)">6</text></g></g></svg>